<svg width="75" height="74" viewBox="0 0 75 74" fill="none" xmlns="http://www.w3.org/2000/svg">
<rect x="5.5" y="5" width="64" height="64" rx="32" fill="#FEE4E2"/>
<rect x="5.5" y="5" width="64" height="64" rx="32" stroke="#FEF3F2" stroke-width="10"/>
<path d="M28.1667 31.6667V45C28.1667 47.9455 30.5545 50.3333 33.5 50.3333H41.5C44.4455 50.3333 46.8333 47.9455 46.8333 45V31.6667M40.1667 35.6667V43.6667M34.8333 35.6667L34.8333 43.6667M42.8333 27.6667L40.9583 24.8541C40.4637 24.1123 39.6311 23.6667 38.7395 23.6667H36.2605C35.3689 23.6667 34.5363 24.1123 34.0417 24.8541L32.1667 27.6667M42.8333 27.6667H32.1667M42.8333 27.6667H49.5M32.1667 27.6667H25.5" stroke="#F04438" stroke-width="2" stroke-linecap="round" stroke-linejoin="round"/>
</svg>
